<svg width="32" height="32" viewBox="0 0 32 32" fill="none" xmlns="http://www.w3.org/2000/svg">
  <rect width="32" height="32" rx="6" fill="#FF6B6B"/>
  <path d="M0 12a4 4 0 014-4h0a4 4 0 01-4-4V2a2 2 0 012-2h28a2 2 0 012 2v2a4 4 0 01-4 4h0a4 4 0 014 4v8a4 4 0 01-4 4h0a4 4 0 014 4v2a2 2 0 01-2 2H2a2 2 0 01-2-2v-2a4 4 0 014-4h0a4 4 0 01-4-4z" fill="#FF6B6B"/>
  <line x1="10" y1="1" x2="10" y2="4" stroke="#fff" stroke-width="1.5" stroke-linecap="round"/>
  <line x1="10" y1="7" x2="10" y2="10" stroke="#fff" stroke-width="1.5" stroke-linecap="round"/>
  <line x1="10" y1="13" x2="10" y2="16" stroke="#fff" stroke-width="1.5" stroke-linecap="round"/>
  <line x1="10" y1="19" x2="10" y2="22" stroke="#fff" stroke-width="1.5" stroke-linecap="round"/>
  <line x1="10" y1="25" x2="10" y2="28" stroke="#fff" stroke-width="1.5" stroke-linecap="round"/>
  <circle cx="20" cy="19" r="3" fill="#fff"/>
  <rect x="22.5" y="9" width="1.5" height="10" rx="0.75" fill="#fff"/>
  <path d="M24 9c2.5-0.8 4.5 0 4.5 2.2s-2 2.2-4.5 1.5" fill="#fff"/>
</svg>
